0
SECTION
2
HEADER
9
$INSUNITS
70
4
9
$ACADVER
1
AC1014
9
$HANDSEED
5
FFFF
0
ENDSEC
0
SECTION
2
TABLES
0
TABLE
2
VPORT
5
8
100
AcDbSymbolTable
0
ENDTAB
0
TABLE
2
LTYPE
5
5
100
AcDbSymbolTable
0
LTYPE
5
14
100
AcDbSymbolTableRecord
100
AcDbLinetypeTableRecord
2
BYBLOCK
70
0
0
LTYPE
5
15
100
AcDbSymbolTableRecord
100
AcDbLinetypeTableRecord
2
BYLAYER
70
0
0
ENDTAB
0
TABLE
2
LAYER
5
2
100
AcDbSymbolTable
70
2
0
LAYER
5
50
100
AcDbSymbolTableRecord
100
AcDbLayerTableRecord
2
0
70
0
6
CONTINUOUS
0
ENDTAB
0
TABLE
2
STYLE
5
3
100
AcDbSymbolTable
70
1
0
STYLE
5
11
100
AcDbSymbolTableRecord
100
AcDbTextStyleTableRecord
2
STANDARD
70
0
0
ENDTAB
0
TABLE
2
VIEW
5
6
100
AcDbSymbolTable
70
0
0
ENDTAB
0
TABLE
2
UCS
5
7
100
AcDbSymbolTable
70
0
0
ENDTAB
0
TABLE
2
APPID
5
9
100
AcDbSymbolTable
70
2
0
APPID
5
12
100
AcDbSymbolTableRecord
100
AcDbRegAppTableRecord
2
ACAD
70
0
0
ENDTAB
0
TABLE
2
DIMSTYLE
5
A
100
AcDbSymbolTable
70
1
0
ENDTAB
0
TABLE
2
BLOCK_RECORD
5
1
100
AcDbSymbolTable
70
1
0
BLOCK_RECORD
5
1F
100
AcDbSymbolTableRecord
100
AcDbBlockTableRecord
2
*MODEL_SPACE
0
BLOCK_RECORD
5
1B
100
AcDbSymbolTableRecord
100
AcDbBlockTableRecord
2
*PAPER_SPACE
0
ENDTAB
0
ENDSEC
0
SECTION
2
BLOCKS
0
BLOCK
5
20
100
AcDbEntity
100
AcDbBlockBegin
2
*MODEL_SPACE
0
ENDBLK
5
21
100
AcDbEntity
100
AcDbBlockEnd
0
BLOCK
5
1C
100
AcDbEntity
100
AcDbBlockBegin
2
*PAPER_SPACE
0
ENDBLK
5
1D
100
AcDbEntity
100
AcDbBlockEnd
0
ENDSEC
0
SECTION
2
ENTITIES
0
CIRCLE
5
100
100
AcDbEntity
8
0
100
AcDbCircle
10
32.501179699054887
20
-32.499985640555863
30
0
40
1.0000000000000004
210
0
220
0
230
1
0
CIRCLE
5
101
100
AcDbEntity
8
0
100
AcDbCircle
10
-32.498820300945106
20
32.500014359444236
30
0
40
0.999999999999997
210
0
220
0
230
1
0
LWPOLYLINE
5
102
100
AcDbEntity
8
0
100
AcDbPolyline
90
4
70
1
43
0.0
10
12.000941717836715
20
-12.000082575269209
10
12.000941717836715
20
-26.000082575269168
10
26.000941717836671
20
-26.000082575269168
10
26.000941717836671
20
-12.000082575269209
0
LWPOLYLINE
5
103
100
AcDbEntity
8
0
100
AcDbPolyline
90
4
70
1
43
0.0
10
-25.999058282163176
20
-7.0000825752692286
10
-11.999058282163215
20
-7.0000825752692286
10
-11.999058282163215
20
6.9999174247307305
10
-25.999058282163176
20
6.9999174247307305
0
LWPOLYLINE
5
104
100
AcDbEntity
8
0
100
AcDbPolyline
90
8
70
1
43
0.0
10
32.501179699054894
20
37.500014359444251
10
-32.498820300945106
20
37.500014359444251
42
0.41421356237309553
10
-37.498820300945113
20
32.500014359444243
10
-37.498820300945113
20
-32.499985640555863
42
0.41421356237309448
10
-32.498820300945113
20
-37.49998564055587
10
32.501179699054887
20
-37.499985640555863
42
0.41421356237309476
10
37.501179699054887
20
-32.49998564055587
10
37.501179699054887
20
32.500014359444236
42
0.41421356237309426
0
LWPOLYLINE
5
105
100
AcDbEntity
8
0
100
AcDbPolyline
90
4
70
1
43
0.0
10
-6.999058282163233
20
-12.000082575269209
10
-6.999058282163233
20
-26.000082575269179
10
7.000941717836735
20
-26.000082575269179
10
7.000941717836735
20
-12.000082575269209
0
LWPOLYLINE
5
106
100
AcDbEntity
8
0
100
AcDbPolyline
90
4
70
1
43
0.0
10
-25.999058282163176
20
-12.000082575269213
10
-25.999058282163176
20
-26.000082575269179
10
-11.999058282163215
20
-26.000082575269179
10
-11.999058282163215
20
-12.000082575269213
0
LWPOLYLINE
5
107
100
AcDbEntity
8
0
100
AcDbPolyline
90
4
70
1
43
0.0
10
-11.999058282163215
20
11.999917424730713
10
-11.999058282163215
20
25.999917424730654
10
-25.999058282163176
20
25.999917424730654
10
-25.999058282163176
20
11.999917424730713
0
LWPOLYLINE
5
108
100
AcDbEntity
8
0
100
AcDbPolyline
90
4
70
1
43
0.0
10
26.000941717836671
20
6.9999174247307323
10
12.000941717836715
20
6.9999174247307314
10
12.000941717836715
20
-7.0000825752692251
10
26.000941717836671
20
-7.0000825752692242
0
LWPOLYLINE
5
109
100
AcDbEntity
8
0
100
AcDbPolyline
90
4
70
1
43
0.0
10
7.000941717836735
20
-7.0000825752692251
10
7.000941717836735
20
6.9999174247307314
10
-6.999058282163233
20
6.9999174247307314
10
-6.999058282163233
20
-7.0000825752692277
0
LWPOLYLINE
5
110
100
AcDbEntity
8
0
100
AcDbPolyline
90
4
70
1
43
0.0
10
7.000941717836735
20
11.999917424730718
10
7.000941717836735
20
25.999917424730654
10
-6.999058282163233
20
25.999917424730654
10
-6.999058282163233
20
11.999917424730718
0
LWPOLYLINE
5
111
100
AcDbEntity
8
0
100
AcDbPolyline
90
4
70
1
43
0.0
10
12.000941717836715
20
11.999917424730718
10
26.000941717836671
20
11.999917424730718
10
26.000941717836671
20
25.999917424730654
10
12.000941717836715
20
25.999917424730654
0
CIRCLE
5
112
100
AcDbEntity
8
0
100
AcDbCircle
10
-32.498820300945106
20
-32.49998564055587
30
0
40
0.99999999999999922
210
0
220
0
230
1
0
CIRCLE
5
113
100
AcDbEntity
8
0
100
AcDbCircle
10
32.501179699054887
20
32.500014359444251
30
0
40
0.999999999999996
210
0
220
0
230
1
0
ENDSEC
0
SECTION
2
OBJECTS
0
DICTIONARY
5
C
100
AcDbDictionary
3
ACAD_GROUP
350
D
3
ACAD_MLINESTYLE
350
17
0
DICTIONARY
5
D
100
AcDbDictionary
0
DICTIONARY
5
1A
330
C
100
AcDbDictionary
0
DICTIONARY
5
17
100
AcDbDictionary
0
ENDSEC
0
EOF
